<?xml version="1.0" encoding="UTF-8" standalone="no"?>
<svg
   data-name="Layer 1"
   width="700"
   height="700"
   viewBox="0 0 700 700.00001"
   version="1.1"
   id="svg96"
   sodipodi:docname="login-illustration.svg"
   inkscape:version="1.2.2 (732a01da63, 2022-12-09)"
   xmlns:inkscape="http://www.inkscape.org/namespaces/inkscape"
   xmlns:sodipodi="http://sodipodi.sourceforge.net/DTD/sodipodi-0.dtd"
   xmlns="http://www.w3.org/2000/svg"
   xmlns:svg="http://www.w3.org/2000/svg">
  <defs
     id="defs100" />
  <sodipodi:namedview
     id="namedview98"
     pagecolor="#ffffff"
     bordercolor="#000000"
     borderopacity="0.25"
     inkscape:showpageshadow="2"
     inkscape:pageopacity="0.0"
     inkscape:pagecheckerboard="0"
     inkscape:deskcolor="#d1d1d1"
     showgrid="false"
     inkscape:zoom="0.8447799"
     inkscape:cx="210.70577"
     inkscape:cy="339.14159"
     inkscape:window-width="1920"
     inkscape:window-height="1001"
     inkscape:window-x="2391"
     inkscape:window-y="-9"
     inkscape:window-maximized="1"
     inkscape:current-layer="svg96" />
  <ellipse
     style="fill:#000000;fill-opacity:0.23999999;stroke-width:0.976529"
     id="path3847"
     cx="131.98705"
     cy="598.9726"
     rx="109.49598"
     ry="17.756104" />
  <path
     style="fill:#4272d8;fill-opacity:1;stroke-width:1.07634"
     d="M 400.73019,59.200039 C 568.36876,97.482356 640.95745,214.82855 670.89902,361.49377 713.62339,570.77402 465.2396,799.20503 292.66267,570.77402 164.75158,401.46483 10.313296,440.79005 48.882434,318.86259 99.146404,159.96462 233.09165,20.917732 400.73019,59.200039 Z"
     id="path3346"
     sodipodi:nodetypes="zsssz" />
  <path
     d="m 100.78376,330.59948 a 9.0702225,9.0702225 0 0 1 0.59232,-13.89547 l -10.155532,-30.59083 16.176102,4.34579 7.1639,28.38336 a 9.1193761,9.1193761 0 0 1 -13.77679,11.75719 z"
     fill="#a0616a"
     id="path4"
     style="stroke-width:1.09133" />
  <path
     d="m 130.1012,164.39419 c 2.68405,1.53869 18.56443,-2.27389 21.66578,-1.18931 -1.71199,10.44573 7.58649,6.52589 -2.51092,20.24383 -10.09742,13.71795 -30.43487,54.84809 -35.05491,70.2203 -4.62005,15.3722 -0.0474,37.03575 -0.73926,44.32124 a 75.603868,75.603868 0 0 0 0.0623,12.68081 c -5.45557,-0.069 -10.8328,1.06316 -16.373616,0.34006 -5.908852,-16.71988 -9.881813,-40.51897 -12.579574,-53.67201 -2.697762,-13.15303 -2.79644,-7.59065 -1.559121,-14.16755 1.23732,-6.5769 1.536923,-1.79763 0.237136,-8.08953 -1.299787,-6.2919 3.95682,-14.19728 8.813749,-18.7048 2.094113,-6.02326 4.800474,-11.63942 6.873666,-17.59977 15.19263,-13.25336 16.19151,-20.90935 31.1647,-34.38327 z"
     fill="#6c63ff"
     id="path6"
     style="fill:#ff6f00;fill-opacity:1;stroke-width:1.09133" />
  <polygon
     points="572.34,483.401 560.041,483.401 554.19,435.961 572.343,435.961 "
     fill="#ffb6b6"
     id="polygon8"
     transform="matrix(1.0913318,0,0,1.0913318,-53.107688,62.853874)" />
  <path
     d="m 574.92883,603.41623 -43.28004,-0.001 v -0.54743 a 16.846726,16.846726 0 0 1 16.8458,-16.84555 h 10e-4 l 7.90567,-5.99767 14.75025,5.99858 3.77808,1.6e-4 z"
     fill="#2f2e41"
     id="path10"
     style="stroke-width:1.09133" />
  <polygon
     points="515.2,483.401 502.901,483.401 497.05,435.961 515.202,435.961 "
     fill="#ffb6b6"
     id="polygon12"
     transform="matrix(1.0913318,0,0,1.0913318,-53.107688,62.853874)" />
  <path
     d="m 512.56982,603.41623 -43.28004,-0.001 v -0.54743 a 16.846715,16.846715 0 0 1 16.8458,-16.84555 h 10e-4 l 7.90569,-5.99767 14.75023,5.99858 3.77809,1.6e-4 z"
     fill="#2f2e41"
     id="path14"
     style="stroke-width:1.09133" />
  <path
     d="m 503.33668,307.35866 87.30655,2.18266 c 16.5814,9.0062 16.83318,28.49879 11.40024,51.6421 0,0 1.83408,13.75565 -1.8341,17.42383 -3.66819,3.66819 -5.50227,3.66818 -3.66818,10.08749 1.83409,6.41931 -7.85624,16.90393 -6.67925,18.08092 1.17699,1.17699 3.92812,7.5963 3.92812,7.5963 l -9.17046,52.27152 c 0,0 -6.41931,90.78736 -8.2534,92.62146 -1.83409,1.83409 -3.66817,0 -1.83408,4.58522 1.83409,4.58522 3.66817,2.75112 1.83408,4.58522 a 67.540563,67.540563 0 0 0 -4.58522,5.50226 h -22.1715 c 0,0 -1.67162,-9.17046 -1.67162,-10.08748 0,-0.91703 -1.8341,-6.41932 -1.8341,-7.33636 0,-0.91705 1.62108,-2.53811 1.62108,-2.53811 a 30.169868,30.169868 0 0 0 1.13006,-5.71531 c 0,-1.83409 5.50227,-72.44648 5.50227,-72.44648 l -11.00453,-91.70438 -26.59429,89.87031 c 0,0 0,78.8658 -1.83408,80.69989 -1.83408,1.83409 -1.83409,0.91703 -0.91704,4.58522 0.91704,3.66818 4.58521,2.75112 1.83409,5.50226 -2.75113,2.75114 -3.66819,-1.83409 -2.75114,2.75113 l 0.91705,4.58522 -27.51132,0.39353 c 0,0 -3.66819,-7.7299 -1.8341,-10.48102 1.8341,-2.75111 1.72405,-2.00017 -0.51354,-6.50235 -2.23759,-4.50218 -3.15463,-5.41921 -2.23758,-6.33627 0.91704,-0.91706 0.91703,-5.79471 0.91703,-5.79471 l 4.58522,-87.74379 c 0,0 0.91705,-92.62145 0.91705,-95.37258 a 9.1470523,9.1470523 0 0 0 -0.76175,-4.12555 v -3.73431 l 3.51293,-13.23214 z"
     fill="#2f2e41"
     id="path16"
     style="stroke-width:1.09133" />
  <circle
     cx="555.78296"
     cy="98.691833"
     r="27.126635"
     fill="#ffb6b6"
     id="circle18"
     style="stroke-width:1.09133" />
  <path
     d="m 542.2196,143.74728 c -5.84408,3.47432 -9.34,9.85792 -11.34681,16.35379 a 154.97816,154.97816 0 0 0 -6.65976,37.02772 l -2.11965,37.624 -26.25158,80.11211 c 22.75138,19.25109 108.27039,4.37522 108.27039,4.37522 0,0 2.62515,-0.87502 0,-3.50021 -2.62516,-2.62518 -5.18078,-0.2994 -2.55564,-2.92459 2.62514,-2.62519 0.81546,0.29942 -0.0596,-2.32577 -0.87505,-2.62519 0,-0.87502 0.87505,-1.7501 0.87506,-0.87509 -6.7742,-8.75058 -6.7742,-8.75058 l 7.0004,-45.98507 8.75051,-92.75557 C 600.84805,148.12244 579.7299,140.38487 579.7299,140.38487 l -5.45666,-9.82199 -27.28329,2.18267 z"
     fill="#3f3d56"
     id="path20"
     style="stroke-width:1.09133;fill:#ff6f00;fill-opacity:1" />
  <path
     d="m 538.4991,82.771846 a 12.818489,12.818489 0 0 1 3.11041,0.408158 44.269876,44.269876 0 0 0 6.08865,1.020995 28.212892,28.212892 0 0 1 25.26214,23.930431 c 1.57626,-1.37428 5.1631,-3.90225 8.10293,-1.5528 v 0 c 0.0447,0.0373 0.0709,0.0565 0.17425,0.008 1.95246,-0.92614 5.4183,-12.326509 5.52323,-22.364317 0.0554,-5.327697 -0.78334,-12.130937 -5.09216,-14.285357 l -0.22699,-0.113499 -0.0597,-0.246728 c -0.28776,-1.198435 -3.5042,-3.244158 -9.09407,-4.83639 -10.15877,-2.893524 -25.00258,-3.311832 -33.52967,4.983469 -0.64532,2.796538 -3.0438,3.562816 -5.16465,4.241166 -2.34839,0.750837 -4.37652,1.398802 -4.69624,4.279525 a 88.299135,88.299135 0 0 0 0.058,12.309459 12.57127,12.57127 0 0 1 4.46605,-6.273554 8.8517925,8.8517925 0 0 1 5.07773,-1.508024 z"
     fill="#2f2e41"
     id="path22"
     style="stroke-width:1.09133" />
  <path
     d="m 488.00849,232.65835 44.31152,-28.37833 -22.31828,-29.66815 -22.03791,27.10868 -68.6653,4.21139 a 13.08628,13.08628 0 1 0 -0.73251,19.28453 z"
     fill="#ffb6b6"
     id="path24"
     style="stroke-width:1.09133" />
  <path
     d="m 573.44712,164.66954 c 2.57178,15.56422 -45.99483,45.2852 -45.99483,45.2852 -7.5e-4,-3.65316 -28.98776,23.92581 -30.29617,20.89603 -3.71862,-8.61095 -6.33315,-29.00634 -11.52935,-32.27082 -2.97163,-1.8669 17.89702,-19.40473 17.89702,-19.40473 0,0 10.92372,-11.0048 25.2588,-24.8857 a 33.443024,33.443024 0 0 1 30.97425,-9.05388 c 0,0 11.11845,3.86976 13.69028,19.4339 z"
     fill="#3f3d56"
     id="path26"
     style="stroke-width:1.09133;fill:#ff6f00;fill-opacity:1" />
  <path
     d="m 524.07199,343.37261 a 148.17231,148.17231 0 0 1 -8.25047,48.92441 c -0.25101,0.73119 -0.51293,1.45147 -0.77485,2.18266 a 148.94579,148.94579 0 0 1 -59.42301,73.94865 c -1.86618,1.20046 -3.75418,2.34636 -5.67493,3.45952 a 147.56862,147.56862 0 0 1 -71.80963,19.88406 c -0.82942,0.0109 -1.65883,0.0218 -2.48824,0.0218 -1.06951,0 -2.1281,-0.0109 -3.18669,-0.0327 a 147.72521,147.72521 0 0 1 -71.80963,-20.27689 q -2.88112,-1.68611 -5.67493,-3.50318 A 148.55973,148.55973 0 0 1 241.97362,278.79856 c 0.34923,-0.73119 0.70937,-1.45147 1.08042,-2.18266 a 148.47964,148.47964 0 0 1 265.19364,0 c 0.37105,0.73119 0.73119,1.45147 1.08042,2.18266 a 147.78432,147.78432 0 0 1 14.74389,64.57405 z"
     fill="#f2f2f2"
     style="isolation:isolate;stroke-width:1.09133"
     id="path28" />
  <path
     d="m 478.14873,392.29697 v 2.18267 h 13.29243 v -2.18267 z m -26.58484,0 v 2.18267 h 13.29242 v -2.18267 z m -26.58484,0 v 2.18267 h 13.29242 v -2.18267 z m -26.58485,0 v 2.18267 h 13.29243 v -2.18267 z m -26.58484,0 v 2.18267 h 13.29242 v -2.18267 z m -26.58484,0 v 2.18267 h 13.29242 v -2.18267 z m -26.58485,0 v 2.18267 h 13.29243 v -2.18267 z m -26.57393,0 v 2.18267 h 13.28151 v -2.18267 z m -26.58484,0 v 2.18267 h 13.29242 v -2.18267 z m -26.58484,0 v 2.18267 h 13.29242 v -2.18267 z m 276.92545,0 h -11.08793 v 2.18267 h 10.31308 z"
     fill="#e6e6e6"
     id="path30"
     style="stroke-width:1.09133" />
  <path
     d="m 504.73362,377.01833 v 2.18266 h 13.29242 v -2.18266 z m -26.58484,0 v 2.18266 h 13.29242 v -2.18266 z m -26.58484,0 v 2.18266 h 13.29242 v -2.18266 z m -26.58485,0 v 2.18266 h 13.29242 v -2.18266 z m -26.58484,0 v 2.18266 h 13.29242 v -2.18266 z m -26.58485,0 v 2.18266 h 13.29243 v -2.18266 z m -26.58484,0 v 2.18266 h 13.29242 v -2.18266 z m -26.58484,0 v 2.18266 h 13.29242 v -2.18266 z m -26.57393,0 v 2.18266 h 13.28151 v -2.18266 z m -26.58485,0 v 2.18266 h 13.29243 v -2.18266 z m -26.58484,0 v 2.18266 h 13.29242 v -2.18266 z"
     fill="#e6e6e6"
     id="path32"
     style="stroke-width:1.09133" />
  <path
     d="m 504.73362,345.3697 v 2.18267 h 13.29242 v -2.18267 z m -26.58484,0 v 2.18267 h 13.29242 v -2.18267 z m -26.58484,0 v 2.18267 h 13.29242 v -2.18267 z m -26.58485,0 v 2.18267 h 13.29242 v -2.18267 z m -26.58484,0 v 2.18267 h 13.29242 v -2.18267 z m -26.58485,0 v 2.18267 h 13.29243 v -2.18267 z m -26.58484,0 v 2.18267 h 13.29242 v -2.18267 z m -26.58484,0 v 2.18267 h 13.29242 v -2.18267 z m -26.57393,0 v 2.18267 h 13.28151 v -2.18267 z m -26.58485,0 v 2.18267 h 13.29243 v -2.18267 z m -26.58484,0 v 2.18267 h 13.29242 v -2.18267 z"
     fill="#e6e6e6"
     id="path34"
     style="stroke-width:1.09133" />
  <path
     d="m 504.73362,323.54307 v 2.18266 h 13.29242 v -2.18266 z m -26.58484,0 v 2.18266 h 13.29242 v -2.18266 z m -26.58484,0 v 2.18266 h 13.29242 v -2.18266 z m -26.58485,0 v 2.18266 h 13.29242 v -2.18266 z m -26.58484,0 v 2.18266 h 13.29242 v -2.18266 z m -26.58485,0 v 2.18266 h 13.29243 v -2.18266 z m -26.58484,0 v 2.18266 h 13.29242 v -2.18266 z m -26.58484,0 v 2.18266 h 13.29242 v -2.18266 z m -26.57393,0 v 2.18266 h 13.28151 v -2.18266 z m -26.58485,0 v 2.18266 h 13.29243 v -2.18266 z m -26.58484,0 v 2.18266 h 13.29242 v -2.18266 z"
     fill="#e6e6e6"
     id="path36"
     style="stroke-width:1.09133" />
  <path
     d="m 508.24768,276.6158 h -3.51409 v 2.18266 h 4.59451 c -0.34924,-0.73117 -0.70934,-1.45143 -1.08042,-2.18266 z m -30.09893,0 v 2.18266 h 13.29242 v -2.18266 z m -26.58485,0 v 2.18266 h 13.29242 v -2.18266 z m -26.58484,0 v 2.18266 h 13.29242 v -2.18266 z m -26.58484,0 v 2.18266 h 13.29242 v -2.18266 z m -26.58485,0 v 2.18266 h 13.29242 v -2.18266 z m -26.58484,0 v 2.18266 h 13.29242 v -2.18266 z m -26.58484,0 v 2.18266 h 13.29242 v -2.18266 z m -26.57393,0 v 2.18266 h 13.2815 v -2.18266 z m -26.58485,0 v 2.18266 h 13.29242 v -2.18266 z m -22.42687,0 c -0.37105,0.73119 -0.73119,1.45147 -1.08042,2.18266 h 10.21487 v -2.18266 z"
     fill="#e6e6e6"
     id="path38"
     style="stroke-width:1.09133" />
  <path
     d="m 455.62369,283.97143 v 184.45691 c -1.86618,1.20046 -3.75418,2.34636 -5.67493,3.45952 V 283.97143 Z"
     fill="#3f3d56"
     id="path40"
     style="stroke-width:1.09133" />
  <path
     d="m 378.13913,345.08601 v 146.68591 c -0.82941,0.0109 -1.65882,0.0218 -2.48824,0.0218 -1.0695,0 -2.12809,-0.0109 -3.18669,-0.0327 v -146.675 z"
     fill="#3f3d56"
     id="path42"
     style="stroke-width:1.09133" />
  <path
     d="m 300.65457,283.97143 v 187.51264 q -2.88112,-1.68611 -5.67493,-3.50318 V 283.97143 Z"
     fill="#3f3d56"
     id="path44"
     style="stroke-width:1.09133" />
  <circle
     cx="452.0441"
     cy="277.89273"
     r="20.735304"
     fill="#6c63ff"
     id="circle48"
     style="fill:#2e7d32;fill-opacity:1;stroke-width:1.09133" />
  <path
     d="m 462.68837,269.2509 a 1.6769514,1.6769514 0 0 0 -2.31507,0 68.681812,68.681812 0 0 0 -11.76652,12.01864 q -1.25762,-2.43322 -2.51506,-4.8665 c -0.9677,-1.87238 -3.79388,-0.21834 -2.82697,1.65245 q 1.83931,3.55907 3.67865,7.11804 a 1.6562161,1.6562161 0 0 0 2.82704,0 66.297317,66.297317 0 0 1 12.91793,-13.60754 1.6468852,1.6468852 0 0 0 0,-2.31509 z"
     fill="#ffffff"
     id="path50"
     style="stroke-width:1.09133" />
  <circle
     cx="375.65088"
     cy="339.00732"
     r="20.735304"
     fill="#6c63ff"
     id="circle52"
     style="fill:#ed6c02;fill-opacity:1;stroke-width:1.09133" />
  <path
     d="m 386.29514,330.36548 a 1.6769514,1.6769514 0 0 0 -2.31507,0 68.681812,68.681812 0 0 0 -11.76652,12.01865 q -1.25762,-2.43323 -2.51505,-4.8665 c -0.96771,-1.87239 -3.79389,-0.21835 -2.82698,1.65245 q 1.83931,3.55906 3.67865,7.11803 a 1.6562161,1.6562161 0 0 0 2.82704,0 66.297317,66.297317 0 0 1 12.91793,-13.60754 1.6468852,1.6468852 0 0 0 0,-2.31509 z"
     fill="#ffffff"
     id="path54"
     style="stroke-width:1.09133" />
  <circle
     cx="298.16629"
     cy="282.25806"
     r="20.735304"
     fill="#6c63ff"
     id="circle56"
     style="fill:#2e7d32;fill-opacity:1;stroke-width:1.09133" />
  <path
     d="m 308.81058,273.61623 a 1.6769514,1.6769514 0 0 0 -2.31507,0 68.681812,68.681812 0 0 0 -11.76652,12.01864 q -1.25762,-2.43322 -2.51505,-4.8665 c -0.96771,-1.87239 -3.79389,-0.21834 -2.82698,1.65245 q 1.83931,3.55906 3.67865,7.11804 a 1.6562161,1.6562161 0 0 0 2.82704,0 66.297317,66.297317 0 0 1 12.91793,-13.60754 1.6468852,1.6468852 0 0 0 0,-2.31509 z"
     fill="#ffffff"
     id="path58"
     style="stroke-width:1.09133" />
  <path
     d="m 595.52942,267.5125 13.65038,-50.81837 -36.47765,-6.90523 1.96159,34.88129 -47.92863,49.35085 a 13.086291,13.086291 0 1 0 12.44413,14.75037 z"
     fill="#ffb6b6"
     id="path60"
     style="stroke-width:1.09133" />
  <path
     d="m 612.91259,159.71614 c 12.38185,9.7749 -3.51028,64.45115 -3.51028,64.45115 -2.46051,-2.70029 -5.31975,37.20799 -8.32723,35.84916 -8.54758,-3.86208 -24.2142,-17.1799 -30.25398,-16.09436 -3.45407,0.62082 0.1647,-26.39735 0.1647,-26.39735 0,0 0.66561,-15.49162 1.91654,-35.40667 a 33.442991,33.442991 0 0 1 16.80273,-27.55077 c 0,0 10.82565,-4.62603 23.20752,5.14884 z"
     fill="#3f3d56"
     id="path62"
     style="stroke-width:1.09133;fill:#ff6f00;fill-opacity:1" />
  <polygon
     points="218.409,193.301 232.16,254.667 144.042,249.186 168.004,188.918 "
     fill="#a0616a"
     id="polygon64"
     transform="matrix(1.0913318,0,0,1.0913318,-53.107688,62.853874)" />
  <polygon
     points="203.736,476.529 213.634,476.528 218.343,438.349 203.734,438.349 "
     fill="#a0616a"
     id="polygon66"
     transform="matrix(1.0913318,0,0,1.0913318,-53.107688,62.853874)" />
  <path
     d="m 165.57742,577.57599 17.07639,-1.01923 v 7.31629 l 16.235,11.21248 a 4.5700175,4.5700175 0 0 1 -2.59683,8.33072 h -20.33009 l -3.50419,-7.23692 -1.36822,7.23692 h -7.66525 z"
     fill="#2f2e41"
     id="path68"
     style="stroke-width:1.09133" />
  <polygon
     points="110.182,471.604 119.856,473.702 132.552,437.389 118.275,434.292 "
     fill="#a0616a"
     id="polygon70"
     transform="matrix(1.0913318,0,0,1.0913318,-53.107688,62.853874)" />
  <path
     d="m 64.692656,571.54733 16.90431,2.6242 -1.551077,7.14995 13.488861,14.3995 a 4.5700175,4.5700175 0 0 1 -4.303951,7.59081 l -19.867963,-4.31005 -1.890296,-7.81531 -2.871359,6.78234 -7.491022,-1.62507 z"
     fill="#2f2e41"
     id="path72"
     style="stroke-width:1.09133" />
  <path
     d="m 202.71126,396.78216 c -7.5812,41.665 -9.47649,59.6546 -9.47649,59.6546 0,0 5.68592,6.62823 1.89529,10.41886 -3.79063,3.79063 0,11.36131 0,11.36131 l -8.52358,91.85363 -6.86127,-1.11182 -16.52835,-2.65768 -5.96123,-0.96351 3.79064,-86.16771 c 0,0 -3.79064,-7.5812 -1.89529,-9.47655 1.89529,-1.8953 -1.89535,-13.25653 -1.89535,-13.25653 l -4.73294,-89.95835 -29.36138,98.48192 c 0,0 2.84819,3.79065 0,6.62831 -2.83772,2.83766 -8.51304,17.04716 -8.51304,17.04716 l -17.460123,61.09459 -1.4824,5.18819 -9.10592,-1.70466 -9.910651,-1.86356 -1.821226,-0.33876 -3.240022,-0.61415 -2.085863,-0.39179 -0.709464,-0.12706 -3.430601,-0.64594 1.037693,-4.60589 0.539947,-2.4247 14.770756,-65.60518 0.338837,-1.51413 0.36003,-1.5988 c 0,0 -1.895348,-4.73294 0.942311,-7.58121 a 7.3994263,7.3994263 0 0 0 1.895348,-6.62829 2.5853651,2.5853651 0 0 1 -0.254116,-0.31764 3.9309773,3.9309773 0 0 1 -0.677663,-1.54592 c -0.254105,-1.18588 -0.03176,-2.84825 1.88473,-4.76475 a 8.0850118,8.0850118 0 0 0 1.34474,-1.92707 c 2.880024,-5.45302 4.330644,-17.00484 4.330644,-17.00484 0,0 2.56236,-91.4936 10.948243,-105.47018 0.44475,-0.73061 9.34715,-14.75641 9.81304,-15.04232 9.46595,-5.67532 83.21441,2.16363 83.21441,2.16363 0,0 4.46682,11.99984 4.66801,13.24925 1.09061,7.02002 8.57941,32.82374 2.1523,68.16754 z"
     fill="#2f2e41"
     id="path74"
     style="stroke-width:1.09133" />
  <path
     d="m 180.30246,176.39884 c 0,0 1.59573,-8.28337 -13.73812,-23.61722 -8.11791,-2.70597 -22.18344,-1.12883 -27.05971,0 -22.54977,29.7657 -18.51227,24.51374 -24.38205,41.1448 -1.52211,4.31263 -2.28316,8.45616 -1.60668,11.83862 2.70598,13.52986 7.09905,82.98188 6.19706,86.58984 -0.90198,3.60795 -7.21588,8.11791 -0.90198,8.11791 6.3139,0 87.73762,-1.42528 85.93365,-4.13127 -1.80397,-2.70599 -24.44217,-119.94268 -24.44217,-119.94268 z"
     fill="#6c63ff"
     id="path76"
     style="fill:#ff6f00;fill-opacity:1;stroke-width:1.09133" />
  <path
     d="m 277.00519,286.45458 a 9.0701898,9.0701898 0 0 1 -12.17717,-6.71949 l -31.91217,-4.53285 11.09595,-12.5473 28.60321,6.22815 a 9.1193761,9.1193761 0 0 1 4.39023,17.57153 z"
     fill="#a0616a"
     id="path78"
     style="stroke-width:1.09133" />
  <path
     d="m 141.99251,171.06696 c 2.57313,-1.71775 5.49567,-2.52442 7.84809,-4.81807 8.5898,6.18541 9.22189,-3.8857 17.00646,11.26489 7.78457,15.15059 35.55104,51.67893 47.25638,62.66235 11.70534,10.98343 33.13805,16.53844 39.35276,20.40294 a 75.602264,75.602264 0 0 0 11.38125,5.59231 c -2.49166,4.85378 -3.87314,10.17245 -6.98847,14.81121 -17.60162,-2.15682 -40.67922,-9.20005 -53.65708,-12.64314 -12.97785,-3.44308 -8.04167,-0.87721 -13.37904,-4.91442 -5.33736,-4.0372 -0.9249,-2.17673 -7.13715,-3.81547 -6.21224,-1.63873 -10.94883,-9.86625 -12.82121,-16.22247 -4.46006,-4.55773 -8.28292,-9.48229 -12.69597,-13.99327 -5.09916,-19.50553 -10.77164,-38.91955 -16.16602,-58.32686 z"
     fill="#6c63ff"
     id="path80"
     style="fill:#ff6f00;fill-opacity:1;stroke-width:1.09133" />
  <circle
     cx="162.14305"
     cy="115.11835"
     r="26.118584"
     fill="#a0616a"
     id="circle82"
     style="stroke-width:1.09133" />
  <path
     d="m 179.59356,162.86183 c -1.23812,-1.76796 -10.49403,-19.29839 -13.2454,-25.92777 a 30.316107,30.316107 0 0 0 -0.53435,4.35122 l -0.0274,0.54458 -0.54072,0.0701 c -0.81332,0.10379 -20.02318,2.43547 -30.02044,-8.90053 -5.92307,-6.71473 -7.26627,-16.7865 -3.99775,-29.94145 a 5.2147545,5.2147545 0 0 1 -1.68331,-0.64836 7.2283709,7.2283709 0 0 1 -3.08126,-5.249877 l -0.55346,0.148421 C 108.12382,88.653513 123.4465,63.335861 139.69178,75.92328 a 7.8490004,7.8490004 0 0 1 4.28945,0.246477 7.9578717,7.9578717 0 0 1 4.91232,6.510886 c 8.39358,-4.414928 19.5022,-3.696515 25.24758,-0.38405 2.40554,1.387148 3.78692,3.134141 4.03215,5.083019 6.78606,0.378944 14.08481,6.989228 14.08481,16.354698 v 0.65218 h -0.65217 a 15.054824,15.054824 0 0 0 -13.11672,8.26237 19.18461,19.18461 0 0 0 0.58976,19.5748 27.601375,27.601375 0 0 1 3.80859,21.10333 l -2.45074,10.7386 z"
     fill="#2f2e41"
     id="path84"
     style="stroke-width:1.09133" />
  <circle
     cx="297.52179"
     cy="498.47922"
     r="11.557805"
     fill="#e6e6e6"
     id="circle90"
     style="stroke-width:1.09133" />
  <circle
     cx="375.00635"
     cy="510.48386"
     r="11.557805"
     fill="#e6e6e6"
     id="circle92"
     style="stroke-width:1.09133" />
  <circle
     cx="452.49091"
     cy="496.29654"
     r="11.557805"
     fill="#e6e6e6"
     id="circle94"
     style="stroke-width:1.09133" />
  <ellipse
     style="fill:#000000;fill-opacity:0.236593;stroke-width:0.949769"
     id="ellipse3849"
     cx="521.94806"
     cy="598.9726"
     rx="103.57728"
     ry="17.756104" />
</svg>
